<?xml version="1.0" encoding="utf-8"?>
<!-- Generator: Adobe Illustrator 27.9.0, SVG Export Plug-In . SVG Version: 6.00 Build 0)  -->
<svg version="1.1" xmlns="http://www.w3.org/2000/svg" xmlns:xlink="http://www.w3.org/1999/xlink" x="0px" y="0px"
	 viewBox="0 0 49.68 33.84" style="enable-background:new 0 0 49.68 33.84;" xml:space="preserve">
<style type="text/css">
	.st0{fill:none;stroke:#FFFFFF;stroke-miterlimit:10;}
	.st1{fill:#FFFFFF;}
	.st2{fill:url(#SVGID_1_);}
	.st3{fill:url(#SVGID_00000111152686471679744040000007384588603542345645_);}
	.st4{fill:url(#SVGID_00000182502709964235756690000005535286916192007601_);}
	.st5{fill:url(#SVGID_00000011009191546868503780000001016059578014780035_);}
	.st6{fill:url(#SVGID_00000072282743103692904250000015012359378165138313_);}
	.st7{fill:url(#SVGID_00000049914731079214227030000016193285913373093776_);}
	.st8{fill:url(#SVGID_00000151539378648174008860000000764304336498966657_);}
	.st9{fill:url(#SVGID_00000129178206763864469610000009812613372371688102_);}
	.st10{fill:url(#SVGID_00000183961817616634974410000001453458229199145099_);}
	.st11{fill:none;stroke:#000000;stroke-width:6;stroke-miterlimit:10;}
	.st12{fill:url(#SVGID_00000141430581660904643320000001632677382930575746_);}
	.st13{fill:url(#SVGID_00000042699040663866251610000000785057296437359504_);}
	.st14{fill:url(#SVGID_00000138575703086080394200000015783630679861466023_);}
	.st15{fill:url(#SVGID_00000081608658336824002650000015313276445731331732_);}
	.st16{fill:url(#SVGID_00000132069091632949916460000016230518579622079386_);}
	.st17{fill:url(#SVGID_00000161611880276328325410000015601203286900079807_);}
	.st18{fill:url(#SVGID_00000168805717510415828870000001930836537447456942_);}
	.st19{fill:url(#SVGID_00000137848383001523465530000005742323722461942454_);}
	.st20{fill:url(#SVGID_00000007399395944435735510000000746090908225403047_);}
	.st21{fill:#231F20;}
</style>
<g id="Layer_1">
	<g>
		<polygon class="st1" points="20.54,17.86 8.19,1.02 6.62,1.02 4.64,1.02 20.54,22.6 20.54,25.89 6.62,7.07 1.72,1.02 0.6,1.02 
			0.6,32.82 3.85,32.82 3.85,8.06 5.63,10.49 5.63,32.82 8.69,32.82 8.69,14.64 22.06,32.82 23.57,32.82 23.57,1.02 20.54,1.02 		
			"/>
		<polygon class="st1" points="45.74,32.82 49.08,32.82 39.57,14.36 48.76,1.02 45.31,1.02 28.37,25.53 28.37,22.28 42.81,1.02 
			40.83,1.02 39.27,1.02 28.37,17.51 28.37,1.02 25.34,1.02 25.34,32.82 26.86,32.82 34.45,21.79 40.22,32.82 43.55,32.82 
			36.41,18.95 37.65,17.14 		"/>
	</g>
</g>
<g id="Layer_2">
</g>
</svg>
