<?xml version="1.0" encoding="utf-8"?>
<!-- Generator: Adobe Illustrator 27.9.0, SVG Export Plug-In . SVG Version: 6.00 Build 0)  -->
<svg version="1.1" xmlns="http://www.w3.org/2000/svg" xmlns:xlink="http://www.w3.org/1999/xlink" x="0px" y="0px"
	 viewBox="0 0 56.88 22.32" style="enable-background:new 0 0 56.88 22.32;" xml:space="preserve">
<style type="text/css">
	.st0{fill:none;stroke:#FFFFFF;stroke-miterlimit:10;}
	.st1{fill:#FFFFFF;}
	.st2{fill:url(#SVGID_1_);}
	.st3{fill:url(#SVGID_00000136385428801431552150000001997859873068974501_);}
	.st4{fill:url(#SVGID_00000110433180574490645560000015793287065206380198_);}
	.st5{fill:url(#SVGID_00000008841957002592797960000005021912583299180989_);}
	.st6{fill:url(#SVGID_00000112623787563179742530000001159488156163106234_);}
	.st7{fill:url(#SVGID_00000170273175369661185120000015347116209942761893_);}
	.st8{fill:url(#SVGID_00000098221822709837428580000017472317296477886888_);}
	.st9{fill:url(#SVGID_00000157987368283073677050000017428527431650359469_);}
	.st10{fill:url(#SVGID_00000172400274190711575520000000552180061000693692_);}
	.st11{fill:none;stroke:#000000;stroke-width:6;stroke-miterlimit:10;}
	.st12{fill:url(#SVGID_00000111185446156165409590000016758192344860310707_);}
	.st13{fill:url(#SVGID_00000012467495347931280220000007079206837156558233_);}
	.st14{fill:url(#SVGID_00000064334292227870851850000013133456802800188334_);}
	.st15{fill:url(#SVGID_00000069361395422950050000000009637143168169224599_);}
	.st16{fill:url(#SVGID_00000127760106666171739150000017321405124226648759_);}
	.st17{fill:url(#SVGID_00000159463299946875438690000006383156244687680691_);}
	.st18{fill:url(#SVGID_00000108269613326722198050000015002445608339078813_);}
	.st19{fill:url(#SVGID_00000109736183802508744900000018109881664011318703_);}
	.st20{fill:url(#SVGID_00000175317404824192429030000018280934932961160333_);}
	.st21{fill:#231F20;}
</style>
<g id="Layer_1">
	<g>
		<polygon class="st1" points="22.82,18.64 27.88,18.64 27.88,0.65 24.9,0.65 24.9,15.96 23.92,15.96 11.2,0.65 0.63,0.65 
			0.63,21.67 3.61,21.67 3.61,2.97 9.92,2.97 		"/>
		<polygon class="st1" points="50.59,0.65 46.66,0.65 35.52,9.05 31.95,9.05 31.95,0.65 28.7,0.65 28.7,11.25 36.68,11.25 		"/>
		<polygon class="st1" points="28.7,11.93 28.7,19.35 22.37,19.35 9.47,3.68 4.44,3.68 4.44,21.67 7.39,21.67 7.39,6.36 8.37,6.36 
			21.09,21.67 28.7,21.67 29.3,21.67 31.95,21.67 31.95,14.17 35.7,14.17 46.24,21.67 50.53,21.67 36.98,11.93 		"/>
		<polygon class="st1" points="41.81,11.28 55.95,0.65 51.96,0.65 37.73,11.46 51.93,21.67 56.25,21.67 		"/>
	</g>
</g>
<g id="Layer_2">
</g>
</svg>
